<svg width="53" height="34" viewBox="0 0 53 34" fill="none" xmlns="http://www.w3.org/2000/svg">
<path d="M1.65625 30.8125H51.3438V3.71875H1.65625V30.8125ZM4.96875 5.84375H48.0312V28.6875H4.96875V5.84375Z" fill="black"/>
<path d="M11.5938 8.5H8.28125V25.5H11.5938V8.5Z" fill="black"/>
<path d="M18.2188 8.5H14.9062V21.25H18.2188V8.5Z" fill="black"/>
<path d="M24.8438 8.5H21.5312V25.5H24.8438V8.5Z" fill="black"/>
<path d="M31.4688 8.5H28.1562V21.25H31.4688V8.5Z" fill="black"/>
<path d="M38.0938 8.5H34.7812V21.25H38.0938V8.5Z" fill="black"/>
<path d="M44.7188 8.5H41.4062V25.5H44.7188V8.5Z" fill="black"/>
<path d="M18.2188 23.375H14.9062V25.5H18.2188V23.375Z" fill="black"/>
<path d="M31.4688 23.375H28.1562V25.5H31.4688V23.375Z" fill="black"/>
<path d="M38.0938 23.375H34.7812V25.5H38.0938V23.375Z" fill="black"/>
</svg>
