<svg width="626" height="626" viewBox="0 0 626 626" fill="none" xmlns="http://www.w3.org/2000/svg">
<g clip-path="url(#clip0_583_333)">
<path fill-rule="evenodd" clip-rule="evenodd" d="M313 84.0005V84C296.334 96.6666 279.417 109.458 262.5 122.25C245.584 135.041 228.667 147.833 212 160.5L176 188L173 190.5L153 205.5C153 205.5 148.846 208.631 149 208.5L121 230.5V393.5C130.645 400.483 139.978 407.816 149 415.5C175.039 435.844 201.039 456.178 227 476.5C240.241 485.407 252.908 495.073 265 505.5C273 511.667 281 517.833 289 524C297 530.167 305 536.333 313 542.5C329.039 530.155 345.039 517.822 361 505.5C369.025 498.814 443.359 440.481 452 434.5C469.605 421.407 487.105 408.073 504.5 394.5C505.167 339.5 505.167 284.5 504.5 229.5C464.873 199.115 424.82 168.777 384.83 138.487L384.829 138.487C360.828 120.308 336.85 102.146 313 84.0005ZM313 505.5C325.458 495.801 356.038 472.312 385.908 449.369C413.487 428.185 440.46 407.467 452 398.5C460.408 392.538 468.574 386.205 476.5 379.5C477.167 342.167 477.167 304.833 476.5 267.5C469.609 273.33 462.228 278.849 455.161 284.134C454.099 284.928 453.045 285.717 452 286.5L424 308.5C391.394 333.846 358.274 359.048 325.342 384.107L325.342 384.108L325.34 384.109L325.106 384.287L324.489 384.757C320.656 387.673 316.826 390.587 313 393.5C259.043 352.049 204.209 309.382 150.5 267.5C149.667 305.171 149.833 342.838 151 380.5C192.363 412.509 233.697 444.509 275 476.5C287.092 486.927 299.759 496.593 313 505.5ZM313 357.5C341.39 336.623 369.39 315.123 397 293L399 291.5L443 257.5C451.147 250.864 459.481 244.364 468 238C416.457 198.284 364.79 158.784 313 119.5L260 160.5L223 188.5L160 238C211.019 277.53 262.353 317.697 313 357.5Z" fill="black"/>
</g>
<defs>
<clipPath id="clip0_583_333">
<rect width="626" height="626" fill="white"/>
</clipPath>
</defs>
</svg>
