<svg width="626" height="626" viewBox="0 0 626 626" fill="none" xmlns="http://www.w3.org/2000/svg">
<g clip-path="url(#clip0_583_234)">
<path fill-rule="evenodd" clip-rule="evenodd" d="M341 140.563C322.675 140.063 244.879 139.896 226.515 140.063H147V373.063V418.563V485.063H339C339 485.063 339 485.063 339 485.063H387H478V414.063V378.063V266.063C478.166 258.722 478 251.389 477.5 244.063C474.477 241.865 471.644 239.532 469 237.063C425.927 205.497 383.26 173.33 341 140.563ZM310.5 456.063H378H425H450V437.063V400.063V288.063V271.063H340V168.063H196.5L196.5 168.063H175V395.063V396.563V456.063H310.5C310.5 456.063 310.5 456.063 310.5 456.063ZM428 242.563C408.151 226.811 388.151 211.311 368 196.063V243.063C388.003 243.23 408.003 243.063 428 242.563Z" fill="black"/>
</g>
<defs>
<clipPath id="clip0_583_234">
<rect width="626" height="626" fill="white"/>
</clipPath>
</defs>
</svg>
