<svg width="32" height="32" viewBox="0 0 32 32" fill="none" xmlns="http://www.w3.org/2000/svg">
<g clip-path="url(#clip0_1350_373)">
<path d="M30 24V22H27.8989C27.77 21.3741 27.5214 20.7789 27.167 20.2471L28.657 18.7571L27.243 17.3431L25.753 18.8331C25.2212 18.4786 24.626 18.2301 24 18.1011V16H22V18.1011C21.3741 18.23 20.7789 18.4786 20.2471 18.833L18.7571 17.343L17.3431 18.757L18.8331 20.247C18.4786 20.7788 18.2301 21.374 18.1011 22H16V24H18.1011C18.23 24.6259 18.4786 25.2211 18.833 25.7529L17.343 27.2429L18.757 28.6569L20.247 27.1669C20.7788 27.5214 21.374 27.7699 22 27.8989V30H24V27.8989C24.6259 27.77 25.2211 27.5214 25.7529 27.167L27.2429 28.657L28.6569 27.243L27.1669 25.753C27.5214 25.2212 27.7699 24.626 27.8989 24H30ZM23 26C22.4067 26 21.8266 25.8241 21.3333 25.4944C20.8399 25.1648 20.4554 24.6962 20.2284 24.1481C20.0013 23.5999 19.9419 22.9967 20.0576 22.4147C20.1734 21.8328 20.4591 21.2982 20.8787 20.8787C21.2982 20.4591 21.8328 20.1734 22.4147 20.0576C22.9967 19.9419 23.5999 20.0013 24.1481 20.2284C24.6962 20.4554 25.1648 20.8399 25.4944 21.3333C25.8241 21.8266 26 22.4067 26 23C25.9991 23.7954 25.6828 24.5579 25.1204 25.1204C24.5579 25.6828 23.7954 25.9991 23 26Z" fill="black"/>
<path d="M25 5H22V4C21.9985 3.47004 21.7873 2.96222 21.4125 2.58748C21.0378 2.21274 20.53 2.00153 20 2H12C11.47 2.00153 10.9622 2.21274 10.5875 2.58748C10.2127 2.96222 10.0015 3.47004 10 4V5H7C6.47004 5.00153 5.96222 5.21274 5.58748 5.58748C5.21274 5.96222 5.00153 6.47004 5 7V28C5.00153 28.53 5.21274 29.0378 5.58748 29.4125C5.96222 29.7873 6.47004 29.9985 7 30H14V28H7V7H10V10H22V7H25V13H27V7C26.9985 6.47004 26.7873 5.96222 26.4125 5.58748C26.0378 5.21274 25.53 5.00153 25 5ZM20 8H12V4H20V8Z" fill="black"/>
</g>
<defs>
<clipPath id="clip0_1350_373">
<rect width="32" height="32" fill="white"/>
</clipPath>
</defs>
</svg>
