<svg width="626" height="626" viewBox="0 0 626 626" fill="none" xmlns="http://www.w3.org/2000/svg">
<path fill-rule="evenodd" clip-rule="evenodd" d="M321.5 32.5C322.495 43.988 322.828 55.6547 322.5 67.5C304.653 80.9248 286.986 94.5914 269.5 108.5C256.62 117.107 244.286 126.441 232.5 136.5C231.833 136.5 231.5 136.833 231.5 137.5C211.863 152.324 192.196 167.158 172.5 182C170.671 183.113 169.837 184.613 170 186.5C221.019 226.03 271.853 265.697 322.5 305.5C322.828 317.345 322.495 329.012 321.5 340.5C267.543 299.049 213.709 257.382 160 215.5C159.167 253.171 159.333 290.838 160.5 328.5C201.863 360.509 243.197 392.509 284.5 424.5C296.592 434.927 309.259 444.593 322.5 453.5C322.5 465.833 322.5 478.167 322.5 490.5C306.5 478.167 290.5 465.833 274.5 453.5C262.408 443.073 249.741 433.407 236.5 424.5C210.539 404.178 184.539 383.844 158.5 363.5C149.478 355.816 140.145 348.483 130.5 341.5C130.5 287.167 130.5 232.833 130.5 178.5C140.145 171.517 149.478 164.184 158.5 156.5C159.167 156.5 159.5 156.167 159.5 155.5C167.345 150.077 175.011 144.411 182.5 138.5C183.5 138.167 184.167 137.5 184.5 136.5C197.38 127.893 209.714 118.559 221.5 108.5C254.833 83.1667 288.167 57.8333 321.5 32.5Z" fill="#DE2442"/>
<path fill-rule="evenodd" clip-rule="evenodd" d="M321.5 32.4999C321.897 31.4749 322.563 31.3082 323.5 31.9999C387.09 80.3787 450.59 128.879 514 177.5C514.667 232.5 514.667 287.5 514 342.5C496.605 356.073 479.105 369.407 461.5 382.5C461.5 370.5 461.5 358.5 461.5 346.5C469.908 340.538 478.074 334.205 486 327.5C486.667 290.167 486.667 252.833 486 215.5C478.074 222.205 469.908 228.538 461.5 234.5C461.666 227.159 461.5 219.826 461 212.5C457.977 210.302 455.144 207.969 452.5 205.5C460.647 198.864 468.981 192.364 477.5 186C425.957 146.284 374.29 106.784 322.5 67.4999C322.828 55.6546 322.495 43.9879 321.5 32.4999Z" fill="#D5AD81"/>
<path fill-rule="evenodd" clip-rule="evenodd" d="M322.5 67.5C374.29 106.784 425.957 146.284 477.5 186C468.981 192.364 460.647 198.864 452.5 205.5C409.427 173.934 366.76 141.767 324.5 109C306.17 108.5 287.836 108.333 269.5 108.5C286.986 94.5914 304.653 80.9248 322.5 67.5Z" fill="#FEFDFD"/>
<path fill-rule="evenodd" clip-rule="evenodd" d="M221.5 108.5C209.714 118.559 197.38 127.893 184.5 136.5C175.833 136.5 167.167 136.5 158.5 136.5C158.5 143.167 158.5 149.833 158.5 156.5C149.478 164.184 140.145 171.517 130.5 178.5C130.5 155.167 130.5 131.833 130.5 108.5C160.833 108.5 191.167 108.5 221.5 108.5Z" fill="#1E1E1C"/>
<path fill-rule="evenodd" clip-rule="evenodd" d="M269.5 108.5C287.836 108.333 306.17 108.5 324.5 109C366.76 141.767 409.427 173.934 452.5 205.5C455.144 207.969 457.977 210.302 461 212.5C461.5 219.826 461.666 227.159 461.5 234.5C461.5 271.833 461.5 309.167 461.5 346.5C461.5 358.5 461.5 370.5 461.5 382.5C461.5 406.167 461.5 429.833 461.5 453.5C431.167 453.5 400.833 453.5 370.5 453.5C354.5 453.5 338.5 453.5 322.5 453.5C309.259 444.593 296.592 434.927 284.5 424.5C310.167 424.5 335.833 424.5 361.5 424.5C377.167 424.5 392.833 424.5 408.5 424.5C416.833 424.5 425.167 424.5 433.5 424.5C433.5 418.167 433.5 411.833 433.5 405.5C433.5 393.167 433.5 380.833 433.5 368.5C433.5 331.167 433.5 293.833 433.5 256.5C433.5 250.833 433.5 245.167 433.5 239.5C396.833 239.5 360.167 239.5 323.5 239.5C323.5 205.167 323.5 170.833 323.5 136.5C293.167 136.5 262.833 136.5 232.5 136.5C244.286 126.441 256.62 117.107 269.5 108.5Z" fill="#1E1E1C"/>
<path fill-rule="evenodd" clip-rule="evenodd" d="M182.5 138.5C175.011 144.411 167.345 150.077 159.5 155.5C159.5 149.5 159.5 143.5 159.5 137.5C167.352 137.175 175.018 137.508 182.5 138.5Z" fill="#FEFCFC"/>
<path fill-rule="evenodd" clip-rule="evenodd" d="M231.5 137.5C261.833 137.5 292.167 137.5 322.5 137.5C322.168 171.671 322.502 205.671 323.5 239.5C350.997 240.332 378.664 240.832 406.5 241C378.89 263.123 350.89 284.623 322.5 305.5C271.853 265.697 221.019 226.03 170 186.5C169.837 184.613 170.671 183.113 172.5 182C192.196 167.158 211.863 152.324 231.5 137.5Z" fill="#FEFEFE"/>
<path fill-rule="evenodd" clip-rule="evenodd" d="M231.5 137.5C231.5 136.833 231.833 136.5 232.5 136.5C262.833 136.5 293.167 136.5 323.5 136.5C323.5 170.833 323.5 205.167 323.5 239.5C322.502 205.671 322.168 171.671 322.5 137.5C292.167 137.5 261.833 137.5 231.5 137.5Z" fill="#8D8D8C"/>
<path fill-rule="evenodd" clip-rule="evenodd" d="M184.5 136.5C184.167 137.5 183.5 138.167 182.5 138.5C175.018 137.508 167.352 137.175 159.5 137.5C159.5 143.5 159.5 149.5 159.5 155.5C159.5 156.167 159.167 156.5 158.5 156.5C158.5 149.833 158.5 143.167 158.5 136.5C167.167 136.5 175.833 136.5 184.5 136.5Z" fill="#B2B0B0"/>
<path fill-rule="evenodd" clip-rule="evenodd" d="M351.5 164.5C371.651 179.749 391.651 195.249 411.5 211C391.503 211.5 371.503 211.667 351.5 211.5C351.5 195.833 351.5 180.167 351.5 164.5Z" fill="#FBFBFB"/>
<path fill-rule="evenodd" clip-rule="evenodd" d="M321.5 340.5C321.735 341.097 322.235 341.43 323 341.5C359.984 313.348 396.817 285.015 433.5 256.5C433.5 293.833 433.5 331.167 433.5 368.5C409.461 387.178 385.461 405.845 361.5 424.5C335.833 424.5 310.167 424.5 284.5 424.5C243.197 392.509 201.863 360.509 160.5 328.5C159.333 290.838 159.167 253.171 160 215.5C213.709 257.382 267.543 299.049 321.5 340.5Z" fill="#FEFEFE"/>
<path fill-rule="evenodd" clip-rule="evenodd" d="M461.5 346.5C461.5 309.167 461.5 271.833 461.5 234.5C469.908 228.538 478.074 222.205 486 215.5C486.667 252.833 486.667 290.167 486 327.5C478.074 334.205 469.908 340.538 461.5 346.5Z" fill="#FCFCFC"/>
<path fill-rule="evenodd" clip-rule="evenodd" d="M323.5 239.5C360.167 239.5 396.833 239.5 433.5 239.5C433.5 245.167 433.5 250.833 433.5 256.5C396.817 285.015 359.984 313.348 323 341.5C322.235 341.43 321.735 341.097 321.5 340.5C322.495 329.012 322.828 317.345 322.5 305.5C350.89 284.623 378.89 263.123 406.5 241C378.664 240.832 350.997 240.332 323.5 239.5Z" fill="#D3AC81"/>
<path fill-rule="evenodd" clip-rule="evenodd" d="M130.5 341.5C140.145 348.483 149.478 355.816 158.5 363.5C158.5 383.833 158.5 404.167 158.5 424.5C184.5 424.5 210.5 424.5 236.5 424.5C249.741 433.407 262.408 443.073 274.5 453.5C226.5 453.5 178.5 453.5 130.5 453.5C130.5 416.167 130.5 378.833 130.5 341.5Z" fill="#1E1E1C"/>
<path fill-rule="evenodd" clip-rule="evenodd" d="M158.5 363.5C184.539 383.844 210.539 404.178 236.5 424.5C210.5 424.5 184.5 424.5 158.5 424.5C158.5 404.167 158.5 383.833 158.5 363.5Z" fill="#FDFCFC"/>
<path fill-rule="evenodd" clip-rule="evenodd" d="M433.5 368.5C433.5 380.833 433.5 393.167 433.5 405.5C424.859 411.481 416.525 417.814 408.5 424.5C392.833 424.5 377.167 424.5 361.5 424.5C385.461 405.845 409.461 387.178 433.5 368.5Z" fill="#D5AD81"/>
<path fill-rule="evenodd" clip-rule="evenodd" d="M433.5 405.5C433.5 411.833 433.5 418.167 433.5 424.5C425.167 424.5 416.833 424.5 408.5 424.5C416.525 417.814 424.859 411.481 433.5 405.5Z" fill="#FEFDFC"/>
<path fill-rule="evenodd" clip-rule="evenodd" d="M322.5 453.5C338.5 453.5 354.5 453.5 370.5 453.5C354.539 465.822 338.539 478.155 322.5 490.5C322.5 478.167 322.5 465.833 322.5 453.5Z" fill="#D6AD81"/>
</svg>
